<?xml version="1.0" encoding="utf-8"?>
<svg enable-background="new 0 0 290 221" id="Layer_1" version="1.1" viewBox="0 0 290 221" width="100%" x="0px" xml:space="preserve" xmlns="http://www.w3.org/2000/svg" xmlns:xlink="http://www.w3.org/1999/xlink" y="0px">
<path d=" M152.000000,222.000000   C101.333336,222.000000 51.166679,222.000000 1.000014,222.000000   C1.000009,148.333344 1.000009,74.666695 1.000005,1.000033   C97.666634,1.000022 194.333267,1.000022 290.999939,1.000011   C290.999939,74.666634 290.999939,148.333267 290.999969,221.999939   C244.833328,222.000000 198.666672,222.000000 152.000000,222.000000  M237.301987,192.926270   C242.752579,190.282532 248.479904,188.082184 253.589966,184.892868   C261.584900,179.903046 267.437500,172.735809 272.355316,164.673615   C279.349548,153.207336 282.887146,140.893311 282.956177,127.492455   C282.972046,124.410133 281.748993,123.447220 278.772095,123.559624   C267.451019,123.987061 256.125244,124.333809 244.798126,124.542007   C236.690155,124.691032 228.577225,124.570976 220.463531,124.570976   C220.463531,131.405731 220.463531,136.982361 220.463531,142.556732   C233.256027,142.556732 245.588654,142.556732 258.007721,142.556732   C258.007721,143.272034 258.123199,143.798264 257.984924,144.246185   C257.643677,145.351685 257.340271,146.514252 256.751404,147.490906   C250.634598,157.635193 243.671661,166.658066 231.912064,171.168579   C216.564270,177.055359 203.111725,173.980240 191.826599,162.921051   C179.157257,150.505356 167.364899,137.195816 155.164871,124.299866   C143.740738,112.224083 132.104965,100.343010 120.885063,88.080940   C107.486664,73.438004 91.025246,65.567085 71.266548,66.272125   C58.578300,66.724876 46.711319,71.043724 36.116222,78.478386   C22.548529,87.998932 13.738828,100.967659 10.356672,116.892960   C6.048838,137.176956 9.955547,156.231110 23.481972,172.450821   C31.812433,182.439987 41.909000,189.990005 54.872234,193.662643   C68.875526,197.629959 81.845314,195.174988 94.139130,188.669022   C102.939888,184.011581 111.216766,178.315842 119.498726,172.743530   C125.027695,169.023499 130.154938,164.706375 135.972885,160.266556   C131.120529,155.180191 127.025749,150.503296 122.436127,146.376801   C121.425735,145.468369 118.196304,145.822906 116.778091,146.773514   C108.991699,151.992584 101.470917,157.606277 93.821182,163.031265   C80.385933,172.559158 63.821621,176.925858 48.521172,165.253830   C40.765377,159.337280 34.951111,151.883072 32.833130,142.053711   C30.446178,130.976105 31.262363,120.380493 37.030949,110.306984   C42.087254,101.477303 49.243122,95.027000 58.818748,92.051727   C79.254517,85.702065 95.673912,92.647758 109.440407,108.175903   C120.712418,120.890343 132.370056,133.264908 143.943726,145.709244   C152.541245,154.953552 161.348648,164.002869 169.932617,173.259521   C178.160995,182.132721 187.530533,189.201706 199.260117,192.757706   C211.639618,196.510712 224.045502,197.178909 237.301987,192.926270  M191.362778,75.793976   C180.635834,83.171310 169.899826,90.535538 159.189728,97.937248   C157.091125,99.387581 154.861557,101.019623 157.278931,103.855385   C161.407578,108.698578 165.668350,113.429138 169.951660,118.295677   C178.115814,112.388794 184.760254,107.295593 191.702713,102.647522   C197.414948,98.823105 203.093414,94.400848 209.463196,92.209641   C227.824997,85.893166 243.074631,90.042336 253.872360,109.411766   C254.883636,111.225845 256.807465,113.681580 258.448608,113.794739   C265.496826,114.280701 272.597778,114.002136 279.586487,114.002136   C279.776245,112.146439 279.985291,111.614594 279.851440,111.191154   C275.855438,98.550858 270.313538,86.617531 258.690308,79.405441   C251.531052,74.963203 243.513550,71.272980 235.383621,69.162979   C220.330872,65.256271 205.775970,68.593658 191.362778,75.793976  z" data-note="background-removed" fill="none" opacity="1.000000" stroke="none"/>
<path d=" M236.891220,192.965332   C224.045502,197.178909 211.639618,196.510712 199.260117,192.757706   C187.530533,189.201706 178.160995,182.132721 169.932617,173.259521   C161.348648,164.002869 152.541245,154.953552 143.943726,145.709244   C132.370056,133.264908 120.712418,120.890343 109.440407,108.175903   C95.673912,92.647758 79.254517,85.702065 58.818748,92.051727   C49.243122,95.027000 42.087254,101.477303 37.030949,110.306984   C31.262363,120.380493 30.446178,130.976105 32.833130,142.053711   C34.951111,151.883072 40.765377,159.337280 48.521172,165.253830   C63.821621,176.925858 80.385933,172.559158 93.821182,163.031265   C101.470917,157.606277 108.991699,151.992584 116.778091,146.773514   C118.196304,145.822906 121.425735,145.468369 122.436127,146.376801   C127.025749,150.503296 131.120529,155.180191 135.972885,160.266556   C130.154938,164.706375 125.027695,169.023499 119.498726,172.743530   C111.216766,178.315842 102.939888,184.011581 94.139130,188.669022   C81.845314,195.174988 68.875526,197.629959 54.872234,193.662643   C41.909000,189.990005 31.812433,182.439987 23.481972,172.450821   C9.955547,156.231110 6.048838,137.176956 10.356672,116.892960   C13.738828,100.967659 22.548529,87.998932 36.116222,78.478386   C46.711319,71.043724 58.578300,66.724876 71.266548,66.272125   C91.025246,65.567085 107.486664,73.438004 120.885063,88.080940   C132.104965,100.343010 143.740738,112.224083 155.164871,124.299866   C167.364899,137.195816 179.157257,150.505356 191.826599,162.921051   C203.111725,173.980240 216.564270,177.055359 231.912064,171.168579   C243.671661,166.658066 250.634598,157.635193 256.751404,147.490906   C257.340271,146.514252 257.643677,145.351685 257.984924,144.246185   C258.123199,143.798264 258.007721,143.272034 258.007721,142.556732   C245.588654,142.556732 233.256027,142.556732 220.463531,142.556732   C220.463531,136.982361 220.463531,131.405731 220.463531,124.570976   C228.577225,124.570976 236.690155,124.691032 244.798126,124.542007   C256.125244,124.333809 267.451019,123.987061 278.772095,123.559624   C281.748993,123.447220 282.972046,124.410133 282.956177,127.492455   C282.887146,140.893311 279.349548,153.207336 272.355316,164.673615   C267.437500,172.735809 261.584900,179.903046 253.589966,184.892868   C248.479904,188.082184 242.752579,190.282532 236.891220,192.965332  z" fill="#960000" opacity="1.000000" stroke="none"/>
<path d=" M191.664520,75.575195   C205.775970,68.593658 220.330872,65.256271 235.383621,69.162979   C243.513550,71.272980 251.531052,74.963203 258.690308,79.405441   C270.313538,86.617531 275.855438,98.550858 279.851440,111.191154   C279.985291,111.614594 279.776245,112.146439 279.586487,114.002136   C272.597778,114.002136 265.496826,114.280701 258.448608,113.794739   C256.807465,113.681580 254.883636,111.225845 253.872360,109.411766   C243.074631,90.042336 227.824997,85.893166 209.463196,92.209641   C203.093414,94.400848 197.414948,98.823105 191.702713,102.647522   C184.760254,107.295593 178.115814,112.388794 169.951660,118.295677   C165.668350,113.429138 161.407578,108.698578 157.278931,103.855385   C154.861557,101.019623 157.091125,99.387581 159.189728,97.937248   C169.899826,90.535538 180.635834,83.171310 191.664520,75.575195  z" fill="#960000" opacity="1.000000" stroke="none"/>
</svg>